<svg xmlns="http://www.w3.org/2000/svg" version="1.1" width="300" height="360" viewBox="10 14 30 36" class="html5">
    <path style="stroke: none;" d=""></path>
    <path style="stroke: none;" fill="#E24C27" d="M11 15 h28 l-2 30 l-12 4 l-12 -4z"></path>
    <path style="stroke: none;" fill="#F06628" d="M25 17 h12 l-1.7 26.7 l-10.3 3.3z"></path>
    <path style="stroke: none;" fill="white" d="M16 21 h18 l-0.2 3 h-14 l0.3 4 h13.2 l-0.5 12 l-7.8 2.5 l-7.8 -2.5 l-0.4 -6 h3.2 l0.3 3.2 l4.7 1.5 l4.7 -1.5 l0.2 -5.3 h-13z"></path>
    <path style="stroke: none;" fill="#EAEAEA" d="M16 21 h9 v 3 h-5 l0.3 4 h4.7 v3.9 h-7.9z M25 42.5 l-7.8 -2.5 l-0.4 -6 h3.2 l0.3 3.2 l4.7 1.5z"></path>
</svg>